<svg width="482" height="504" viewBox="0 0 482 504" fill="none" xmlns="http://www.w3.org/2000/svg">
<path d="M343.932 147.504C335.132 135.504 321.598 131.171 315.932 130.504C272.265 129.671 181.932 128.504 169.932 130.504C154.932 133.004 149.432 136.504 138.932 147.504C130.532 156.304 127.765 165.837 127.432 169.504C127.098 182.004 126.632 209.204 127.432 218.004C128.432 229.004 135.932 241.504 144.432 251.004C148.248 255.269 155.077 258.894 161.632 261.578C169.169 264.664 174.614 271.879 174.175 280.012L172.366 313.48C172.091 318.56 174.146 323.457 177.708 327.089C195.283 345.01 208.704 367.564 215.932 391.504C222.332 412.704 224.265 443.004 224.432 455.504C224.098 461.837 220.332 474.804 207.932 476.004C196.61 477.1 191.93 470.22 190.694 465.717C190.475 464.919 190.432 464.088 190.432 463.261V460.254C190.432 452.936 184.5 447.004 177.182 447.004C169.864 447.004 163.932 452.936 163.932 460.254V468.624C163.932 470.531 164.227 472.428 164.98 474.179C168.359 482.036 176.34 495.025 188.432 500.004C205.432 507.004 222.432 503.504 239.932 490.504C253.932 480.104 262.098 455.504 264.432 444.504C265.098 441.504 267.832 426.104 273.432 388.504C277.855 358.809 292.548 338.386 303.621 327.828C308.116 323.542 311.154 317.652 310.708 311.458L308.451 280.144C307.861 271.955 313.244 264.486 320.657 260.956C325.806 258.505 331.589 255.202 336.932 251.004C347.505 242.697 352.671 227.201 354.198 219.323C354.368 218.445 354.432 217.555 354.432 216.66V169.504C354.598 167.171 352.732 159.504 343.932 147.504Z" fill="#121111"/>
<path d="M51.4309 159.504H44.4757C39.5216 159.504 35.7454 155.073 36.8503 150.243C50.3014 91.4463 103.014 -0.258845 241.5 0.49998C380.191 1.25993 434.509 92.4726 445.601 150.607C446.501 155.326 442.764 159.504 437.96 159.504H429.478C425.48 159.504 422.126 156.575 421.327 152.658C411.272 103.324 361.765 24.6454 241.5 23.5C120.753 22.35 71.9444 102.845 59.4302 153.122C58.5082 156.827 55.2483 159.504 51.4309 159.504Z" fill="#121111"/>
<path d="M176 352C173.387 349.387 169.262 346.152 166.567 344.145C165.699 343.499 164.482 343.682 163.83 344.545C160.321 349.193 154.35 357.224 151.5 361.5C147.5 367.5 143 374 136 380C131.656 383.724 123.821 389.092 118.192 392.791C116.684 393.782 117.175 395.792 118.978 395.727C121.451 395.638 124.676 395.305 128.5 394.5C138 392.5 137.5 392 152.5 385C163.791 379.731 176.262 368.442 182.001 362.544C182.603 361.925 182.722 360.987 182.275 360.247C180.958 358.068 178.612 354.612 176 352Z" fill="#121111"/>
<path d="M307 352C309.613 349.387 313.738 346.152 316.433 344.145C317.301 343.499 318.518 343.682 319.17 344.545C322.679 349.193 328.65 357.224 331.5 361.5C335.5 367.5 340 374 347 380C351.344 383.724 359.179 389.092 364.808 392.791C366.316 393.782 365.825 395.792 364.022 395.727C361.549 395.638 358.324 395.305 354.5 394.5C345 392.5 345.5 392 330.5 385C319.209 379.731 306.738 368.442 300.999 362.544C300.397 361.925 300.278 360.987 300.725 360.247C302.042 358.068 304.388 354.612 307 352Z" fill="#121111"/>
<path d="M258.932 386.5C264.132 387.3 265.765 383.833 265.932 382C265.932 377.5 265.432 376.5 260.932 374C256.432 371.5 250.932 371 242.932 371C234.932 371 230.932 371 224.432 373C217.932 375 217.432 380 218.432 383C219.432 386 220.932 387.5 224.432 387C227.932 386.5 234.432 385 241.932 385C249.432 385 252.432 385.5 258.932 386.5Z" fill="white"/>
<path d="M262.432 410.5C262.832 406.1 260.432 404.8 259.432 404C256.932 402 252.432 400 243.932 400C235.432 400 233.432 401.5 229.432 403C225.432 404.5 224.932 406 224.932 410.5C224.932 415 229.432 415.5 231.432 415C233.432 414.5 232.932 414 242.432 414C251.932 414 254.932 415 255.932 415C256.932 415 261.932 416 262.432 410.5Z" fill="white"/>
<path d="M262.932 357.5C264.432 357.5 268.432 358.5 268.432 352C268.432 347.239 265.358 344.909 263.432 344.166C238.932 337.831 222.932 343.5 220.932 344C218.932 344.5 212.432 346.5 213.932 353C215.432 359.5 219.432 358.5 222.432 358C225.432 357.5 229.432 356.5 241.932 356.5C254.432 356.5 261.432 357.5 262.932 357.5Z" fill="white"/>
<path d="M273.432 234.5C275.432 230.9 271.598 227.333 269.432 226C267.432 224.448 254.432 219.5 238.932 220C223.432 220.5 213.432 224.5 209.432 227C205.432 229.5 206.932 234.5 208.432 236.5C209.932 238.5 213.932 239 215.932 238C217.829 237.051 221.432 234.5 238.932 234.5C256.432 234.5 261.432 237.5 265.432 238C269.432 238.5 270.932 239 273.432 234.5Z" fill="white"/>
<path d="M273.872 266.535C275.872 262.935 272.038 259.369 269.872 258.035C267.872 256.484 254.872 251.535 239.372 252.035C223.872 252.535 213.872 256.535 209.872 259.035C205.872 261.535 207.372 266.535 208.872 268.535C210.372 270.535 214.372 271.035 216.372 270.035C218.269 269.087 221.872 266.535 239.372 266.535C256.872 266.535 261.872 269.535 265.872 270.035C269.872 270.535 271.372 271.035 273.872 266.535Z" fill="white"/>
<path d="M275.432 296.5C277.832 292.1 274.432 289 272.432 287.5C269.932 286 262.432 281.5 242.432 281.5C217.432 281.5 212.432 286 209.432 288C206.432 290 205.932 292 207.432 296.5C208.632 300.1 213.265 299.333 215.432 298.5C222.432 296.5 224.032 296.5 242.432 296.5C260.832 296.5 261.932 297.5 266.432 298.5C269.618 299.208 273.032 300.9 275.432 296.5Z" fill="white"/>
<path d="M275.606 326C278.006 321.6 274.606 318.5 272.606 317C270.106 315.5 262.606 311 242.606 311C217.606 311 212.606 315.5 209.606 317.5C206.606 319.5 206.106 321.5 207.606 326C208.806 329.6 213.44 328.833 215.606 328C221.932 326.5 224.206 326 242.606 326C261.006 326 262.932 327 266.932 328C270.098 328.792 273.206 330.4 275.606 326Z" fill="white"/>
<path d="M319.002 194.269C325.402 192.669 326.335 198.602 326.002 201.769C325.502 205.269 324.202 213.269 323.002 217.269C321.502 222.269 316.502 232.269 302.002 235.269C287.502 238.269 288.002 235.269 288.002 229.269C288.002 223.269 293.002 214.769 297.502 206.769C302.002 198.769 311.002 196.269 319.002 194.269Z" fill="white"/>
<path d="M163 194.5C156.6 192.9 155.667 198.833 156 202C156.5 205.5 157.8 213.5 159 217.5C160.5 222.5 165.5 232.5 180 235.5C194.5 238.5 194 235.5 194 229.5C194 223.5 189 215 184.5 207C180 199 171 196.5 163 194.5Z" fill="white"/>
<path d="M33 300.638V178.299C33 173.798 28.793 170.636 25.0267 173.102C13.9661 180.342 0.315946 198.529 -4.56935e-05 235.5C-0.306243 271.325 12.6502 293.809 23.7528 305.151C27.481 308.959 33 305.967 33 300.638Z" fill="#121111"/>
<path d="M108 176C109.291 165.345 115.448 155.277 120.053 149.423C121.755 147.26 122.088 144.37 119.683 143.033C111.964 138.74 92.6607 135.435 76 146C59.6 156.4 54.8333 174 54.5 181.5C53.6667 222.333 52.5 305.7 54.5 312.5C57 321 54.5 323 71.5 340.5C82.3101 351.628 94.8892 353.595 102.86 352.929C105.954 352.671 107.973 349.87 107.936 346.765C107.277 291.962 106.451 188.781 108 176Z" fill="#121111"/>
<path d="M449 300.694V178.355C449 173.854 453.207 170.692 456.973 173.158C468.034 180.399 481.684 198.585 482 235.556C482.306 271.381 469.35 293.865 458.247 305.207C454.519 309.015 449 306.023 449 300.694Z" fill="#121111"/>
<path d="M374 176.056C372.708 165.401 366.552 155.333 361.947 149.48C360.245 147.316 359.912 144.426 362.317 143.089C370.036 138.796 389.339 135.491 406 146.056C422.4 156.456 427.167 174.056 427.5 181.556C428.333 222.389 429.5 305.756 427.5 312.556C425 321.056 427.5 323.056 410.5 340.556C399.69 351.684 387.111 353.651 379.14 352.985C376.046 352.727 374.027 349.926 374.064 346.821C374.723 292.018 375.549 188.837 374 176.056Z" fill="#121111"/>
</svg>
